<svg width="183" height="35" viewBox="0 0 183 35" fill="none" xmlns="http://www.w3.org/2000/svg">
<path d="M12.5789 15.9892H20.9785C21.103 15.9892 21.2178 15.9277 21.2857 15.8243L30.7347 1.52637H11.6218C7.99514 1.52637 4.90694 4.16832 4.34589 7.7529L0.661063 31.2717C0.486442 32.389 1.34985 33.3979 2.48003 33.3979H4.31032L9.439 18.2415C9.89495 16.8946 11.1561 15.9892 12.5789 15.9892Z" fill="#0057FC"/>
<path d="M35.4865 1.52637H34.2673L23.7448 17.4492C23.1288 18.3805 22.0956 18.9367 20.98 18.9367H12.5804C12.4219 18.9367 12.2829 19.037 12.2311 19.1873L7.42261 33.3995H25.9922C29.5801 33.3995 32.6456 30.8158 33.2519 27.2797L37.3006 3.68002C37.493 2.55469 36.628 1.52637 35.4865 1.52637Z" fill="black"/>
<path d="M99.1838 27.4964V15.0111L101.934 11.8242L102.78 15.1873L102.194 15.4217C102.371 14.9157 102.633 14.4468 102.983 14.0183C103.334 13.5704 103.753 13.1905 104.241 12.8784C104.728 12.547 105.245 12.2931 105.79 12.1185C106.337 11.9228 106.891 11.8258 107.457 11.8258C108.295 11.8258 109.037 11.9617 109.679 12.2349C110.342 12.4887 110.887 12.8978 111.317 13.4621C111.765 14.028 112.096 14.7491 112.311 15.6255L111.755 15.509L111.989 15.0418C112.204 14.5745 112.505 14.1541 112.896 13.7839C113.286 13.3942 113.724 13.053 114.213 12.7604C114.699 12.4483 115.207 12.2139 115.732 12.0587C116.279 11.9034 116.814 11.8242 117.341 11.8242C118.51 11.8242 119.485 12.0587 120.264 12.5259C121.044 12.9932 121.629 13.7046 122.019 14.6602C122.408 15.6158 122.604 16.7944 122.604 18.1979V27.4948H118.977V18.4307C118.977 17.6514 118.871 17.0079 118.656 16.5002C118.46 15.9941 118.15 15.6238 117.72 15.3894C117.31 15.1355 116.793 15.0094 116.171 15.0094C115.684 15.0094 115.215 15.0967 114.767 15.273C114.339 15.4282 113.968 15.6626 113.656 15.9747C113.344 16.2674 113.102 16.6085 112.926 16.9982C112.751 17.3878 112.662 17.8163 112.662 18.2852V27.4948H109.037V18.4016C109.037 17.6611 108.93 17.0467 108.715 16.56C108.5 16.0539 108.188 15.6723 107.779 15.4201C107.37 15.1469 106.872 15.0111 106.288 15.0111C105.802 15.0111 105.342 15.0984 104.914 15.2746C104.486 15.4298 104.115 15.6546 103.803 15.9472C103.491 16.2399 103.249 16.581 103.072 16.9707C102.896 17.3603 102.809 17.7888 102.809 18.2577V27.4964H99.1838Z" fill="black"/>
<path d="M125.156 6.97232C125.156 5.68368 126.21 4.7168 127.5 4.7168C128.79 4.7168 129.874 5.68368 129.874 6.97232C129.874 8.26095 128.819 9.22784 127.5 9.22784C126.181 9.22784 125.156 8.26095 125.156 6.97232Z" fill="black"/>
<path d="M129.411 12.0879H125.815V27.4966H129.411V12.0879Z" fill="black"/>
<path d="M132.433 27.4965V12.0879H135.971L136.029 16.9999L135.533 15.8891C135.746 15.1098 136.118 14.4081 136.643 13.784C137.17 13.1598 137.773 12.6732 138.456 12.3223C139.158 11.9521 139.888 11.7661 140.648 11.7661C140.98 11.7661 141.292 11.7952 141.584 11.8534C141.896 11.9116 142.149 11.9795 142.344 12.0588L141.379 16.0055C141.166 15.8891 140.902 15.7905 140.59 15.7129C140.278 15.6353 139.966 15.5965 139.654 15.5965C139.167 15.5965 138.698 15.6935 138.25 15.8891C137.822 16.0653 137.442 16.3176 137.111 16.649C136.779 16.9805 136.516 17.3702 136.322 17.818C136.147 18.2465 136.058 18.7348 136.058 19.2797V27.4949H132.433V27.4965Z" fill="black"/>
<path d="M143.966 27.4965V12.0879H147.504L147.562 16.9999L147.066 15.8891C147.279 15.1098 147.651 14.4081 148.176 13.784C148.703 13.1598 149.307 12.6732 149.989 12.3223C150.691 11.9521 151.421 11.7661 152.181 11.7661C152.513 11.7661 152.825 11.7952 153.117 11.8534C153.43 11.9116 153.683 11.9795 153.877 12.0588L152.912 16.0055C152.699 15.8891 152.435 15.7905 152.123 15.7129C151.811 15.6353 151.499 15.5965 151.187 15.5965C150.7 15.5965 150.231 15.6935 149.784 15.8891C149.355 16.0653 148.975 16.3176 148.644 16.649C148.312 16.9805 148.049 17.3702 147.855 17.818C147.68 18.2465 147.593 18.7348 147.593 19.2797V27.4949H143.966V27.4965Z" fill="black"/>
<path d="M162.772 27.7892C161.232 27.7892 159.858 27.448 158.649 26.7657C157.439 26.064 156.485 25.1084 155.784 23.9006C155.082 22.6929 154.731 21.3185 154.731 19.7777C154.731 18.2368 155.082 16.8641 155.784 15.6547C156.485 14.4469 157.441 13.501 158.649 12.8187C159.857 12.117 161.231 11.7661 162.772 11.7661C164.313 11.7661 165.656 12.117 166.866 12.8187C168.073 13.501 169.019 14.4469 169.702 15.6547C170.403 16.8625 170.754 18.2368 170.754 19.7777C170.754 21.3185 170.403 22.6912 169.702 23.9006C169.019 25.1084 168.073 26.064 166.866 26.7657C165.656 27.448 164.293 27.7892 162.772 27.7892ZM162.772 24.6024C163.609 24.6024 164.351 24.3873 164.993 23.9589C165.656 23.5304 166.172 22.9548 166.542 22.2337C166.932 21.5125 167.118 20.6944 167.098 19.7777C167.118 18.8415 166.932 18.0137 166.542 17.2925C166.172 16.5714 165.655 16.0055 164.993 15.5965C164.35 15.168 163.609 14.9529 162.772 14.9529C161.934 14.9529 161.173 15.168 160.492 15.5965C159.829 16.0055 159.312 16.5811 158.943 17.3216C158.573 18.0428 158.387 18.8609 158.387 19.7777C158.387 20.6944 158.571 21.5125 158.943 22.2337C159.313 22.9548 159.829 23.5304 160.492 23.9589C161.174 24.3873 161.934 24.6024 162.772 24.6024Z" fill="black"/>
<path d="M74.2728 27.7892C72.7336 27.7892 71.3592 27.448 70.1498 26.7657C68.9404 26.064 67.9865 25.1084 67.2848 23.9006C66.583 22.6929 66.2322 21.3185 66.2322 19.7777C66.2322 18.2368 66.583 16.8641 67.2848 15.6547C67.9865 14.4469 68.942 13.501 70.1498 12.8187C71.3576 12.117 72.732 11.7661 74.2728 11.7661C75.8137 11.7661 77.1573 12.117 78.3667 12.8187C79.5745 13.501 80.5204 14.4469 81.2027 15.6547C81.9044 16.8625 82.2553 18.2368 82.2553 19.7777C82.2553 21.3185 81.9044 22.6912 81.2027 23.9006C80.5204 25.1084 79.5745 26.064 78.3667 26.7657C77.1573 27.448 75.7943 27.7892 74.2728 27.7892ZM74.2728 24.6024C75.1104 24.6024 75.8525 24.3873 76.4944 23.9589C77.1573 23.5304 77.6731 22.9548 78.0433 22.2337C78.433 21.5125 78.6189 20.6944 78.5995 19.7777C78.6189 18.8415 78.433 18.0137 78.0433 17.2925C77.6731 16.5714 77.1557 16.0055 76.4944 15.5965C75.8509 15.168 75.1104 14.9529 74.2728 14.9529C73.4353 14.9529 72.6738 15.168 71.9931 15.5965C71.3301 16.0055 70.8127 16.5811 70.4441 17.3216C70.0738 18.0428 69.8879 18.8609 69.8879 19.7777C69.8879 20.6944 70.0722 21.5125 70.4441 22.2337C70.8144 22.9548 71.3301 23.5304 71.9931 23.9589C72.6754 24.3873 73.4353 24.6024 74.2728 24.6024Z" fill="black"/>
<path d="M172.389 27.4965V12.0879H175.926L175.985 16.9999L175.487 15.8891C175.702 15.1098 176.072 14.4081 176.597 13.784C177.123 13.1598 177.728 12.6732 178.41 12.3223C179.112 11.9521 179.842 11.7661 180.602 11.7661C180.934 11.7661 181.246 11.7952 181.537 11.8534C181.849 11.9116 182.103 11.9795 182.297 12.0588L181.332 16.0055C181.117 15.8891 180.855 15.7905 180.543 15.7129C180.231 15.6353 179.918 15.5965 179.606 15.5965C179.12 15.5965 178.651 15.6935 178.203 15.8891C177.775 16.0653 177.395 16.3176 177.063 16.649C176.732 16.9805 176.47 17.3702 176.274 17.818C176.098 18.2465 176.011 18.7348 176.011 19.2797V27.4949H172.384L172.389 27.4965Z" fill="black"/>
<path d="M87.2288 27.5373V8.99512H91.1028V27.5373H87.2288ZM83.953 15.9509V12.7527H97.4845L94.7245 15.9509H83.953Z" fill="black"/>
<path d="M61.8134 11.5544C60.0623 9.80496 57.7437 8.84131 55.2829 8.84131H46.2252V16.3646H49.965V12.5811H55.2829C56.7445 12.5811 58.1253 13.1551 59.1682 14.1996C62.0203 17.0226 60.9241 21.8538 57.1891 23.2508V27.1409C64.3308 25.5807 67.0116 16.7478 61.8134 11.5544Z" fill="black"/>
<path d="M46.2268 19.2686H54.0977V27.1394H51.0046V22.3616H46.2268V19.2686Z" fill="#0057FC"/>
<path d="M49.3183 24.0464H46.2252V27.1394H49.3183V24.0464Z" fill="black"/>
</svg>
